<svg width="96" height="72" viewBox="0 0 96 72" fill="none" xmlns="http://www.w3.org/2000/svg">
<path fill-rule="evenodd" clip-rule="evenodd" d="M12.8955 0C13.6868 0 14.3284 0.644711 14.3284 1.44V53.28C14.3284 54.0753 13.6868 54.72 12.8955 54.72C12.1042 54.72 11.4627 54.0753 11.4627 53.28V1.44C11.4627 0.644711 12.1042 0 12.8955 0ZM40.4162 15.7783C38.5667 17.637 37.2537 20.4954 37.2537 24.48V41.76C37.2537 42.5553 36.6122 43.2 35.8209 43.2C35.0296 43.2 34.3881 42.5553 34.3881 41.76V24.48C34.3881 19.8246 35.9408 16.2031 38.3898 13.7418C40.8253 11.2941 44.0635 10.08 47.2836 10.08C50.5037 10.08 53.7418 11.294 56.1774 13.7417C58.6265 16.203 60.1791 19.8246 60.1791 24.48V36C60.1791 36.7953 59.5378 37.44 58.7463 37.44C57.9548 37.44 57.3134 36.7953 57.3134 36V24.48C57.3134 20.4954 56.0005 17.6369 54.151 15.7782C52.288 13.9059 49.7948 12.96 47.2836 12.96C44.7723 12.96 42.2791 13.906 40.4162 15.7783ZM81.6716 34.56C77.7067 34.56 74.8628 33.2405 73.0133 31.3817C71.15 29.5095 70.209 27.0038 70.209 24.48C70.209 21.9562 71.15 19.4505 73.0133 17.5783C74.8628 15.7195 77.7067 14.4 81.6716 14.4H93.1343C93.9258 14.4 94.5672 13.7553 94.5672 12.96C94.5672 12.1647 93.9258 11.52 93.1343 11.52H81.6716C77.0396 11.52 73.4357 13.0805 70.9867 15.5417C68.5515 17.9895 67.3433 21.2438 67.3433 24.48C67.3433 27.7162 68.5515 30.9705 70.9867 33.4183C73.4357 35.8795 77.0396 37.44 81.6716 37.44C85.6366 37.44 88.4805 38.7595 90.33 40.6183C92.1932 42.4905 93.1343 44.9962 93.1343 47.52C93.1343 50.0438 92.1932 52.5495 90.33 54.4217C88.4805 56.2805 85.6366 57.6 81.6716 57.6H47.2836C46.4923 57.6 45.8507 58.2445 45.8507 59.04C45.8507 59.8355 46.4923 60.48 47.2836 60.48H81.6716C86.3037 60.48 89.9076 58.9196 92.3566 56.4583C94.7918 54.0105 96 50.7562 96 47.52C96 44.2838 94.7918 41.0295 92.3566 38.5817C89.9076 36.1205 86.3037 34.56 81.6716 34.56ZM1.43284 46.08C2.22417 46.08 2.86567 46.7247 2.86567 47.52C2.86567 51.5046 4.1786 54.363 6.02811 56.2217C7.89109 58.0942 10.3843 59.04 12.8955 59.04C15.4068 59.04 17.9 58.0942 19.7629 56.2217C21.6124 54.363 22.9254 51.5046 22.9254 47.52V46.656C22.9254 46.3379 23.182 46.08 23.4985 46.08H81.6716C82.4631 46.08 83.1045 46.7247 83.1045 47.52C83.1045 48.3153 82.4631 48.96 81.6716 48.96H26.2729C25.9725 48.96 25.724 49.1938 25.6936 49.4942C25.3181 53.209 23.8804 56.1566 21.7893 58.2584C19.3538 60.7058 16.1156 61.92 12.8955 61.92C9.67542 61.92 6.43727 60.7058 4.00176 58.2584C1.55275 55.7969 0 52.1754 0 47.52C0 46.7247 0.641504 46.08 1.43284 46.08ZM37.2537 53.28C37.2537 52.4847 36.6122 51.84 35.8209 51.84C35.0296 51.84 34.3881 52.4847 34.3881 53.28V70.56C34.3881 71.3555 35.0296 72 35.8209 72C36.6122 72 37.2537 71.3555 37.2537 70.56V53.28Z" fill="white"/>
</svg>
