<svg width="547" height="673" viewBox="0 0 547 673" fill="none" xmlns="http://www.w3.org/2000/svg">
<path fill-rule="evenodd" clip-rule="evenodd" d="M28.4156 0H0V452.94C0 460.806 6.36104 467.183 14.2078 467.183C22.0545 467.183 28.4156 460.806 28.4156 452.94V412.346H159.127V673H187.543V412.346H276.342V528.43H304.757V412.346H462.464V452.94C462.464 460.806 468.824 467.183 476.671 467.183C484.518 467.183 490.879 460.806 490.879 452.94V241.425C490.879 240.638 490.243 240.001 489.458 240.001H463.884C463.099 240.001 462.464 240.638 462.464 241.425V240.001H383.61V148.843H547V120.357H355.195V268.488H462.464V383.859H28.4156V0ZM304.757 185.876H159.127V285.259C166.626 277.379 176.473 271.763 187.543 269.542V207.241H276.342V268.488H304.757V185.876ZM104.427 357.509C124.044 357.509 139.947 341.566 139.947 321.901C139.947 302.235 124.044 286.292 104.427 286.292C84.8106 286.292 68.9078 302.235 68.9078 321.901C68.9078 341.566 84.8106 357.509 104.427 357.509ZM194.647 286.292H373.665C393.282 286.292 409.184 302.235 409.184 321.901C409.184 341.566 393.282 357.509 373.665 357.509H194.647C175.03 357.509 159.127 341.566 159.127 321.901C159.127 302.235 175.03 286.292 194.647 286.292Z" fill="white"/>
</svg>
